<?xml version="1.0" standalone="no"?>
<!DOCTYPE svg PUBLIC "-//W3C//DTD SVG 20010904//EN"
 "http://www.w3.org/TR/2001/REC-SVG-20010904/DTD/svg10.dtd">
<svg version="1.0" xmlns="http://www.w3.org/2000/svg"
 width="619.000000pt" height="619.000000pt" viewBox="0 0 619.000000 619.000000"
 preserveAspectRatio="xMidYMid meet">
<metadata>
Created by potrace 1.14, written by Peter Selinger 2001-2017
</metadata>
<g transform="translate(0.000000,619.000000) scale(0.100000,-0.100000)"
fill="#000000" stroke="none">
<path d="M2967 6174 c-105 -25 -154 -83 -166 -194 -34 -329 382 -1079 925
-1669 l32 -34 -37 -31 c-21 -17 -57 -47 -81 -66 -24 -19 -48 -40 -54 -45 -6
-6 -38 -33 -71 -60 -33 -28 -65 -54 -71 -60 -6 -5 -39 -35 -74 -65 -35 -30
-68 -59 -74 -65 -10 -9 -193 -174 -222 -200 -147 -132 -481 -454 -907 -875
-252 -249 -346 -337 -369 -342 -35 -7 -48 -22 -48 -59 0 -28 32 -69 52 -65 53
9 63 22 60 75 0 12 92 111 284 305 155 155 408 392 650 605 103 92 341 292
529 446 94 77 175 144 181 150 6 5 106 86 222 180 l210 170 -20 25 c-11 14
-43 50 -71 80 -29 30 -86 93 -127 140 -41 46 -79 90 -85 96 -5 6 -32 37 -60
69 -27 32 -55 63 -60 69 -6 6 -47 56 -90 111 -44 55 -86 106 -92 113 -24 25
-195 265 -250 350 -189 293 -267 532 -229 706 12 52 81 122 130 132 20 3 39
10 42 15 3 5 4 9 2 8 -2 0 -29 -7 -61 -15z"/>
<path d="M3268 6160 c-82 -25 -129 -98 -130 -203 0 -81 5 -110 48 -245 116
-363 480 -908 911 -1362 l51 -54 -121 -115 c-67 -63 -520 -512 -1007 -998
-487 -485 -905 -900 -929 -921 -27 -24 -51 -38 -61 -35 -10 3 -27 -5 -38 -17
-25 -27 -20 -67 10 -93 39 -33 104 1 95 50 -3 18 56 81 307 330 298 295 432
425 597 578 41 39 109 101 150 139 41 38 99 92 129 120 30 27 82 75 115 106
87 80 246 225 271 247 20 17 192 175 260 238 17 17 58 54 90 84 176 162 304
284 304 290 0 6 -51 61 -213 232 -387 406 -684 791 -821 1065 -69 137 -99 243
-100 349 -1 137 54 204 178 216 l61 6 -65 1 c-36 0 -77 -3 -92 -8z"/>
<path d="M2617 6143 c-108 -33 -161 -129 -153 -278 17 -336 353 -967 794
-1495 40 -47 72 -87 72 -90 0 -3 -19 -18 -43 -35 -45 -31 -296 -225 -337 -261
-14 -12 -74 -63 -135 -115 -91 -76 -265 -230 -311 -274 -6 -5 -71 -66 -145
-135 -74 -69 -273 -263 -443 -433 -169 -169 -317 -309 -328 -310 -29 -5 -58
-34 -58 -60 0 -36 27 -67 59 -67 35 0 53 20 54 62 1 29 33 65 277 309 390 391
662 621 1283 1083 169 125 307 233 307 238 0 5 -6 15 -12 22 -63 63 -390 461
-511 621 -339 450 -482 743 -480 981 2 111 45 193 119 225 24 10 44 21 44 24
0 3 -1 5 -2 4 -2 -1 -25 -8 -51 -16z"/>
<path d="M3549 6120 c-45 -13 -77 -40 -98 -83 -29 -59 -23 -173 15 -287 l29
-84 95 -29 c58 -17 101 -37 111 -49 12 -15 31 -21 75 -24 32 -3 66 0 74 5 27
18 -10 42 -76 48 -32 3 -99 17 -147 31 -100 29 -99 29 -132 158 -29 115 -20
209 23 258 22 24 65 46 97 48 14 1 25 6 25 10 0 10 -56 9 -91 -2z m266 -530
c4 -6 -8 -10 -29 -10 -20 0 -36 5 -36 10 0 6 13 10 29 10 17 0 33 -4 36 -10z"/>
<path d="M3678 6113 c6 -2 18 -2 25 0 6 3 1 5 -13 5 -14 0 -19 -2 -12 -5z"/>
<path d="M3755 6098 c84 -20 181 -46 200 -52 11 -4 7 0 -8 9 -15 9 -67 25
-115 35 -88 20 -151 26 -77 8z"/>
<path d="M2250 6059 c-48 -29 -68 -52 -92 -107 -68 -153 1 -443 199 -837 116
-231 292 -507 458 -719 l74 -95 -32 -23 c-373 -259 -807 -646 -1335 -1191 -73
-76 -130 -127 -142 -127 -48 0 -67 -88 -25 -116 39 -26 73 -6 81 47 7 45 27
69 209 257 254 263 425 414 745 656 162 123 470 345 618 444 34 24 62 46 62
50 0 4 -62 84 -137 177 -506 632 -704 962 -747 1246 -26 171 7 283 99 340 17
11 23 19 15 19 -8 0 -31 -10 -50 -21z"/>
<path d="M4081 5957 c-67 -24 -93 -101 -69 -210 8 -40 15 -51 41 -62 69 -30
201 -87 397 -170 113 -48 228 -97 255 -110 28 -12 72 -32 98 -44 27 -12 51
-21 53 -19 2 3 -15 13 -39 23 -23 10 -73 33 -112 50 -64 30 -183 82 -515 227
-109 48 -125 59 -132 84 -14 50 -11 129 7 163 18 35 76 66 104 56 10 -4 13 -3
6 4 -17 17 -59 21 -94 8z"/>
<path d="M4220 5966 c0 -2 7 -7 16 -10 8 -3 12 -2 9 4 -6 10 -25 14 -25 6z"/>
<path d="M4260 5910 c8 -5 20 -10 25 -10 6 0 3 5 -5 10 -8 5 -19 10 -25 10 -5
0 -3 -5 5 -10z"/>
<path d="M4450 5860 c0 -5 5 -10 11 -10 5 0 7 5 4 10 -3 6 -8 10 -11 10 -2 0
-4 -4 -4 -10z"/>
<path d="M4514 5826 c11 -9 24 -16 30 -16 12 0 7 5 -24 19 -24 11 -24 11 -6
-3z"/>
<path d="M4560 5806 c0 -3 14 -12 30 -21 17 -9 30 -13 30 -11 0 3 -13 12 -30
21 -16 9 -30 13 -30 11z"/>
<path d="M4510 5796 c0 -3 9 -10 20 -16 11 -6 20 -8 20 -6 0 3 -9 10 -20 16
-11 6 -20 8 -20 6z"/>
<path d="M4571 5756 c14 -12 89 -55 89 -51 0 6 -77 55 -86 55 -4 0 -5 -2 -3
-4z"/>
<path d="M4512 5719 c-24 -22 -34 -53 -28 -84 3 -11 5 -25 5 -31 1 -7 81 -56
179 -109 97 -54 188 -105 202 -113 23 -13 24 -13 6 2 -10 8 -92 56 -182 106
-104 59 -164 98 -165 108 -4 53 2 78 22 94 11 10 25 15 30 12 5 -3 9 -3 9 0 0
3 -13 12 -29 20 -26 14 -30 13 -49 -5z"/>
<path d="M4607 5689 c7 -7 15 -10 18 -7 3 3 -2 9 -12 12 -14 6 -15 5 -6 -5z"/>
<path d="M4687 5683 c12 -10 44 -34 70 -53 26 -19 71 -53 98 -75 60 -49 155
-104 134 -77 -16 20 -39 35 -57 38 -15 3 -19 6 -128 89 -78 60 -167 120 -117
78z"/>
<path d="M1362 5652 c-69 -64 -87 -116 -88 -257 0 -73 -5 -129 -12 -142 -18
-33 -15 -43 14 -43 28 0 84 49 84 74 0 9 -8 16 -19 16 -26 0 -31 27 -28 145 3
108 21 160 75 218 38 40 22 33 -26 -11z"/>
<path d="M4644 5671 c7 -11 46 -35 46 -28 0 3 -12 12 -26 22 -15 9 -23 12 -20
6z"/>
<path d="M4704 5631 c7 -11 46 -35 46 -28 0 3 -12 12 -26 22 -15 9 -23 12 -20
6z"/>
<path d="M4760 5596 c0 -2 8 -10 18 -17 15 -13 16 -12 3 4 -13 16 -21 21 -21
13z"/>
<path d="M4844 5531 c20 -22 26 -25 26 -13 0 4 -10 13 -22 21 -23 14 -23 14
-4 -8z"/>
<path d="M4880 5506 c0 -2 8 -10 18 -17 15 -13 16 -12 3 4 -13 16 -21 21 -21
13z"/>
<path d="M5020 5506 c0 -2 8 -10 18 -17 15 -13 16 -12 3 4 -13 16 -21 21 -21
13z"/>
<path d="M4965 5433 c29 -31 43 -53 35 -53 -10 0 -6 -7 10 -20 42 -32 16 -32
-28 0 -23 17 -42 27 -42 24 0 -4 -8 2 -17 12 -43 48 -129 91 -116 58 3 -8 8
-14 12 -14 3 0 52 -29 109 -64 56 -36 102 -61 102 -56 0 4 7 11 16 14 8 3 13
2 10 -3 -3 -4 3 -16 14 -26 14 -13 20 -14 20 -5 0 15 -55 70 -70 70 -6 0 -9 4
-6 8 3 5 -18 31 -47 58 l-52 49 50 -52z"/>
<path d="M1083 5441 c-64 -58 -94 -156 -87 -284 2 -38 6 -72 8 -75 3 -2 -2
-18 -10 -34 -16 -31 -13 -58 7 -58 20 0 79 67 79 90 0 17 -4 21 -20 17 -11 -3
-21 0 -21 6 -1 7 -3 52 -5 101 -4 103 20 192 64 239 34 35 25 35 -15 -2z"/>
<path d="M5105 5420 c12 -40 26 -59 19 -25 -4 17 -11 35 -16 40 -7 7 -8 1 -3
-15z"/>
<path d="M5143 5385 c4 -8 2 -17 -3 -20 -6 -4 -10 -12 -10 -18 0 -7 4 -6 11 3
8 12 10 9 6 -12 -2 -16 0 -28 5 -28 5 0 6 -4 3 -10 -3 -5 1 -23 10 -41 24 -45
13 -45 -29 1 -20 22 -37 38 -37 35 -1 -3 -2 -9 -3 -14 0 -5 -4 -12 -8 -15 -5
-3 -6 -3 -3 1 6 8 -24 43 -38 43 -5 0 -5 -6 2 -13 6 -8 8 -17 4 -21 -4 -4 1
-4 10 0 12 4 17 2 15 -7 -2 -9 6 -13 25 -13 23 1 25 -1 15 -14 -10 -13 -10
-14 0 -8 6 4 12 2 12 -3 0 -6 5 -11 12 -11 21 0 57 -41 51 -59 -4 -9 -2 -13 2
-8 5 4 23 -18 39 -50 17 -31 37 -59 44 -61 12 -4 -15 55 -40 85 -6 7 -5 14 2
18 6 4 9 3 8 -2 -4 -13 31 -58 39 -49 4 4 1 11 -7 16 -7 5 -15 15 -16 23 -3
22 -46 77 -55 71 -10 -6 -19 9 -21 39 -1 14 -6 23 -11 20 -12 -7 -4 30 8 39 6
4 2 8 -7 8 -17 0 -23 24 -19 73 1 9 -3 17 -9 17 -7 0 -10 -7 -7 -15z"/>
<path d="M5179 5358 c-6 -21 -5 -38 2 -38 5 0 9 7 9 16 0 14 2 15 18 3 15 -13
16 -12 3 4 -11 14 -29 23 -32 15z"/>
<path d="M4911 5315 c28 -15 60 -43 82 -74 46 -63 168 -193 175 -186 11 11 10
35 -2 35 -15 0 -79 66 -136 140 -38 49 -123 109 -155 109 -5 0 11 -11 36 -24z"/>
<path d="M4950 5336 c0 -3 9 -10 20 -16 11 -6 20 -8 20 -6 0 3 -9 10 -20 16
-11 6 -20 8 -20 6z"/>
<path d="M5210 5271 c-15 -29 -12 -38 5 -15 14 18 18 16 76 -46 110 -115 198
-265 178 -302 -6 -10 -15 -16 -20 -12 -6 3 -3 12 8 21 17 13 17 13 -3 4 -15
-7 -25 -7 -35 2 -7 7 -3 0 10 -15 14 -16 27 -26 29 -23 3 3 17 -5 31 -17 l26
-23 -24 28 c-23 26 -18 40 7 15 8 -8 10 -5 6 17 -6 34 -38 100 -70 142 -13 17
-24 36 -24 41 0 6 -3 12 -7 14 -5 2 -25 24 -46 50 -37 46 -125 138 -132 138
-3 0 -9 -9 -15 -19z"/>
<path d="M5270 5281 c0 -6 4 -13 10 -16 6 -3 7 1 4 9 -7 18 -14 21 -14 7z"/>
<path d="M5350 5195 c13 -14 26 -25 28 -25 3 0 -5 11 -18 25 -13 14 -26 25
-28 25 -3 0 5 -11 18 -25z"/>
<path d="M4755 5152 c-34 -7 -40 -21 -14 -31 14 -5 38 -26 54 -47 89 -116 381
-379 531 -477 52 -34 67 -50 80 -87 82 -220 134 -349 174 -430 56 -112 62
-147 62 -358 0 -211 -15 -386 -46 -562 -3 -14 -7 -41 -10 -60 -12 -81 -59
-274 -97 -398 -193 -640 -539 -1227 -997 -1692 l-94 -95 -28 -120 c-24 -101
-64 -226 -94 -296 -6 -13 1 -20 26 -28 130 -43 319 -48 401 -11 58 26 61 34 5
14 -52 -18 -165 -17 -251 4 -34 8 -69 15 -77 17 -19 3 -18 13 19 112 16 45 40
129 52 185 12 57 24 108 28 114 3 7 58 65 121 131 573 593 985 1447 1075 2231
3 23 7 59 9 80 18 156 23 390 11 540 -7 86 -14 109 -104 335 -54 133 -111 279
-127 325 l-29 82 -80 41 c-91 47 -167 99 -307 212 -119 95 -260 237 -254 253
6 15 -12 22 -39 16z"/>
<path d="M5390 5156 c0 -2 8 -10 18 -17 15 -13 16 -12 3 4 -13 16 -21 21 -21
13z"/>
<path d="M5435 5100 c10 -11 20 -20 23 -20 3 0 -3 9 -13 20 -10 11 -20 20 -23
20 -3 0 3 -9 13 -20z"/>
<path d="M4527 5088 c-31 -11 -31 -31 0 -36 11 -2 36 -22 54 -45 108 -135 353
-373 529 -515 161 -129 224 -193 245 -249 10 -26 30 -73 45 -103 38 -76 91
-232 92 -272 2 -36 -10 -218 -18 -289 -10 -92 -12 -106 -23 -164 -6 -33 -13
-73 -15 -90 -39 -227 -128 -534 -237 -810 -61 -156 -240 -506 -337 -662 -206
-330 -446 -621 -723 -877 l-59 -55 -15 -108 c-19 -137 -56 -275 -100 -378 -19
-45 -35 -85 -35 -91 0 -5 28 -17 63 -27 172 -47 300 -56 387 -26 30 10 42 15
25 12 -58 -14 -151 -5 -248 22 -108 31 -106 27 -67 105 38 75 89 277 105 415
l7 60 127 126 c226 225 351 373 510 609 267 395 460 823 581 1285 27 100 54
219 66 285 13 69 24 140 29 185 4 28 8 57 10 65 2 8 7 56 11 105 3 50 8 99 10
110 2 11 4 67 5 125 0 115 -21 199 -82 330 -17 36 -43 94 -57 130 -31 78 -116
166 -292 303 -105 83 -191 154 -279 232 -39 35 -163 162 -215 220 -33 37 -37
45 -35 61 1 7 -22 24 -31 23 -3 0 -18 -5 -33 -11z"/>
<path d="M5294 5078 c-4 -7 -4 -10 1 -6 4 4 15 -7 24 -25 10 -20 22 -31 33
-29 9 1 19 -2 23 -8 3 -5 1 -10 -4 -10 -6 0 -11 -4 -11 -10 0 -5 5 -9 12 -7 7
1 12 -3 13 -10 0 -7 6 -18 13 -25 7 -7 12 -8 10 -3 -2 6 2 11 7 13 6 1 10 -2
10 -8 0 -10 13 -15 21 -8 2 2 -21 29 -52 59 -33 32 -53 46 -49 34 6 -20 6 -20
-9 -1 -8 10 -13 22 -11 26 3 4 -2 13 -9 19 -11 9 -16 9 -22 -1z m105 -92 c9
-11 9 -16 -1 -22 -7 -4 -10 -4 -6 1 4 4 3 14 -3 22 -6 7 -9 13 -6 13 2 0 10
-6 16 -14z"/>
<path d="M5202 5050 c0 -14 2 -19 5 -12 2 6 2 18 0 25 -3 6 -5 1 -5 -13z"/>
<path d="M5475 5050 c10 -11 20 -20 23 -20 3 0 -3 9 -13 20 -10 11 -20 20 -23
20 -3 0 3 -9 13 -20z"/>
<path d="M5500 5016 c0 -2 8 -10 18 -17 15 -13 16 -12 3 4 -13 16 -21 21 -21
13z"/>
<path d="M4288 4999 c-27 -15 -22 -38 9 -45 15 -4 36 -18 46 -31 73 -92 427
-451 547 -554 41 -35 77 -66 80 -69 3 -3 46 -38 95 -77 107 -83 175 -146 175
-160 0 -5 28 -56 61 -112 41 -68 61 -113 62 -134 0 -34 -2 -41 -34 -207 -143
-727 -518 -1494 -1023 -2090 -160 -189 -356 -387 -512 -520 -40 -34 -42 -38
-48 -105 -4 -39 -8 -81 -11 -95 -2 -14 -7 -47 -10 -73 -5 -42 -12 -79 -31
-173 -12 -61 -50 -168 -84 -236 -21 -43 -36 -79 -32 -82 18 -10 204 -65 252
-74 72 -14 236 -10 252 6 9 9 5 10 -18 3 -28 -8 -37 -8 -115 4 -41 6 -220 63
-232 75 -5 4 5 34 21 66 70 139 106 296 137 589 5 44 10 53 53 89 89 75 389
381 471 481 46 55 91 110 101 121 33 40 219 304 250 357 17 28 51 86 77 127
157 259 329 645 428 960 34 107 83 282 90 321 2 11 6 28 9 37 3 9 8 32 11 49
3 18 14 77 24 130 11 54 22 121 25 148 4 28 9 63 12 79 5 22 -12 74 -67 213
l-74 184 -65 41 c-160 100 -540 402 -678 537 -87 87 -182 200 -182 218 0 15
-47 17 -72 2z"/>
<path d="M5195 4990 c3 -5 8 -10 11 -10 2 0 4 5 4 10 0 6 -5 10 -11 10 -5 0
-7 -4 -4 -10z"/>
<path d="M5573 4915 c55 -88 93 -170 106 -226 5 -24 9 -45 7 -46 -1 -2 -26 26
-55 62 -29 36 -58 68 -64 72 -7 4 6 -15 28 -42 22 -27 47 -58 55 -69 8 -10 25
-30 37 -45 l22 -26 0 35 c1 59 -90 248 -155 326 -14 16 -5 -2 19 -41z"/>
<path d="M5182 4920 c-15 -48 -16 -100 -2 -100 16 0 30 44 16 52 -6 4 -7 8 -1
8 9 0 13 66 4 75 -3 2 -10 -14 -17 -35z"/>
<path d="M588 4908 c-44 -79 -51 -106 -54 -198 -4 -106 15 -210 64 -357 30
-88 117 -292 130 -304 4 -4 50 -1 104 6 l96 13 69 72 c153 163 293 292 447
414 176 139 195 151 252 155 41 3 74 91 38 105 -25 10 -80 -19 -93 -50 -9 -20
-66 -66 -179 -146 -185 -130 -291 -215 -397 -317 -86 -83 -130 -107 -215 -116
-36 -3 -72 -8 -80 -10 -18 -5 -138 201 -163 280 -51 157 -59 341 -20 428 23
49 23 64 1 25z"/>
<path d="M5475 4850 c10 -11 20 -20 23 -20 3 0 -3 9 -13 20 -10 11 -20 20 -23
20 -3 0 3 -9 13 -20z"/>
<path d="M5530 4815 c13 -14 26 -25 28 -25 3 0 -5 11 -18 25 -13 14 -26 25
-28 25 -3 0 5 -11 18 -25z"/>
<path d="M5539 4768 c24 -32 45 -58 48 -58 7 0 -59 89 -76 103 -8 7 5 -14 28
-45z"/>
<path d="M5673 4588 c45 -65 108 -159 140 -210 31 -50 58 -87 58 -82 6 37 4
84 -3 114 -13 50 -40 121 -45 117 -2 -3 1 -17 8 -33 15 -40 28 -125 21 -142
-4 -10 -10 -6 -21 15 -25 46 -177 265 -210 303 -17 19 6 -18 52 -82z"/>
<path d="M1785 4576 c-14 -14 -25 -32 -25 -39 0 -8 -26 -34 -57 -57 -62 -46
-195 -151 -203 -161 -3 -3 -41 -37 -85 -75 -44 -38 -87 -76 -96 -84 -8 -8 -67
-64 -130 -125 -63 -60 -137 -122 -166 -138 -50 -27 -64 -30 -188 -42 -33 -3
-71 -7 -85 -10 -14 -2 -51 -8 -82 -13 l-57 -9 -65 111 c-95 164 -115 206 -142
312 -25 100 -33 212 -22 299 l7 50 -19 -55 c-53 -156 10 -432 176 -761 35 -71
48 -89 62 -85 24 8 148 25 228 31 126 10 135 14 173 58 143 167 354 372 546
534 114 95 226 175 238 170 23 -9 77 24 84 51 14 57 -47 82 -92 38z"/>
<path d="M5806 4557 c3 -10 9 -15 12 -12 3 3 0 11 -7 18 -10 9 -11 8 -5 -6z"/>
<path d="M5629 4465 c16 -55 30 -85 40 -85 6 0 8 7 5 15 -5 11 1 15 20 15 14
0 29 1 33 1 8 2 44 -56 101 -161 19 -36 43 -76 52 -90 9 -14 42 -79 75 -145
32 -66 60 -122 62 -124 7 -9 14 8 18 48 2 23 7 47 11 53 4 6 3 8 -3 5 -6 -4
-11 5 -11 21 -1 15 -6 41 -11 57 -8 25 -9 21 -4 -22 3 -29 2 -68 -1 -88 l-7
-36 -45 92 c-44 90 -69 136 -186 336 -58 99 -61 102 -92 99 -23 -3 -36 2 -48
18 -17 21 -17 21 -9 -9z"/>
<path d="M1949 4367 c-13 -7 -28 -26 -33 -42 -6 -21 -43 -57 -125 -122 -130
-103 -202 -167 -368 -325 -62 -59 -158 -141 -214 -183 -55 -42 -119 -96 -142
-120 l-42 -43 -105 -6 c-58 -4 -121 -9 -140 -11 -19 -3 -55 -7 -80 -10 -59 -8
-161 -25 -181 -31 -13 -3 -39 34 -109 151 -100 170 -132 240 -159 357 -21 87
-26 227 -11 277 5 19 6 30 2 25 -32 -36 -41 -201 -17 -312 32 -151 104 -336
201 -520 31 -59 57 -108 58 -109 0 0 33 5 71 12 84 16 145 23 245 31 41 3 89
7 105 9 17 1 53 3 80 4 l50 1 87 103 c175 206 451 473 678 657 98 78 131 100
156 100 70 0 104 102 37 114 -11 3 -31 -1 -44 -7z"/>
<path d="M4333 4112 c-178 -211 -530 -599 -919 -1012 -39 -41 -108 -115 -155
-165 -46 -49 -123 -130 -171 -180 -47 -49 -95 -100 -106 -112 -15 -18 -263
-277 -452 -474 -83 -85 -121 -130 -117 -137 3 -4 8 -43 11 -87 7 -83 12 -128
21 -182 3 -18 8 -50 11 -70 3 -21 12 -69 19 -108 8 -38 17 -86 20 -105 3 -19
14 -78 25 -130 16 -82 26 -138 45 -260 9 -59 15 -121 20 -204 6 -81 4 -90 -16
-112 l-21 -23 25 -25 c21 -21 30 -24 56 -16 58 16 63 28 30 61 -18 18 -22 36
-25 118 -4 127 -13 279 -19 316 -3 17 -7 59 -10 95 -9 110 -16 184 -20 215 -2
17 -7 68 -10 115 -4 47 -9 99 -10 115 -2 17 -7 89 -10 160 l-6 130 153 156
c347 353 826 852 1068 1114 41 44 79 85 85 91 18 19 188 206 249 274 144 159
243 273 280 323 31 40 38 43 58 24 18 -17 185 -165 233 -206 22 -19 91 -74
153 -124 76 -60 118 -101 127 -124 23 -55 72 -40 77 23 3 42 -9 57 -42 51 -27
-6 -67 22 -146 98 -22 21 -178 204 -257 301 -57 70 -157 174 -166 173 -3 0
-43 -44 -88 -97z"/>
<path d="M5796 4140 c6 -34 30 -90 39 -90 2 0 2 9 0 20 -2 11 0 22 5 25 8 5
49 -74 125 -240 32 -70 68 -159 95 -235 13 -36 26 -69 30 -73 13 -15 33 64 31
126 -1 73 -11 90 -11 21 -1 -27 -6 -62 -13 -78 l-12 -28 -19 53 c-59 166 -211
488 -234 496 -9 4 -23 14 -30 22 -11 14 -12 11 -6 -19z"/>
<path d="M2096 4121 c-15 -16 -21 -31 -25 -61 -1 -3 -24 -24 -53 -45 -28 -22
-56 -44 -62 -50 -6 -5 -67 -59 -136 -120 -69 -60 -174 -157 -235 -216 -60 -59
-146 -137 -190 -174 -44 -37 -101 -85 -128 -107 -26 -22 -73 -66 -105 -98
l-57 -58 -170 -7 c-93 -3 -183 -8 -200 -10 -16 -2 -55 -6 -85 -10 -30 -3 -93
-13 -139 -21 -46 -9 -87 -12 -90 -7 -19 21 -182 295 -210 350 -54 109 -89 248
-92 373 -2 57 -3 60 -8 25 -18 -115 15 -283 94 -476 73 -179 196 -409 218
-409 7 0 46 6 87 14 85 17 132 23 245 32 133 10 156 12 265 13 l105 1 63 78
c187 226 569 613 727 733 17 13 32 26 35 29 3 3 37 31 77 63 46 36 81 57 98
57 25 0 75 39 75 59 0 5 -4 21 -10 35 -8 21 -16 26 -43 26 -21 0 -41 -7 -51
-19z"/>
<path d="M5062 3918 c-22 -29 -23 -58 -2 -95 12 -23 28 -86 38 -156 l18 -117
-62 -166 c-181 -476 -425 -918 -746 -1352 -80 -108 -104 -134 -129 -139 -61
-12 -81 -98 -26 -117 38 -14 81 18 85 64 3 24 44 87 154 234 398 530 679 1018
807 1397 l28 84 -58 135 c-36 83 -59 149 -59 172 0 62 -22 88 -48 56z"/>
<path d="M4385 3767 c-80 -112 -473 -596 -664 -815 -27 -32 -98 -113 -157
-182 -109 -127 -384 -441 -394 -450 -3 -3 -36 -41 -74 -85 -39 -44 -75 -85
-80 -90 -6 -6 -47 -50 -91 -100 -44 -49 -88 -99 -98 -109 -18 -21 -18 -20 -1
-161 3 -27 21 -127 39 -220 19 -94 39 -213 45 -264 11 -90 11 -94 -10 -116
-39 -42 -14 -83 55 -90 18 -2 44 15 55 35 9 16 6 25 -14 45 -28 28 -28 35 -42
420 -4 105 -7 204 -9 220 -3 53 -13 39 169 240 50 55 109 120 131 144 22 25
47 52 55 61 27 29 155 174 186 209 16 19 36 41 44 50 9 9 61 68 115 131 55 63
102 117 105 120 41 36 530 633 624 762 48 65 50 67 69 50 10 -9 97 -71 194
-137 151 -103 177 -125 187 -155 9 -30 16 -35 40 -35 24 0 32 6 42 31 19 46
-1 80 -45 76 -28 -2 -41 7 -99 65 -77 77 -95 98 -173 203 -60 80 -157 190
-168 190 -3 0 -19 -19 -36 -43z"/>
<path d="M5754 3659 c-19 -31 1 -142 29 -160 5 -4 25 -58 44 -120 19 -63 38
-118 42 -122 4 -4 39 -8 77 -8 69 0 135 19 150 43 10 16 23 -35 31 -117 8 -92
21 -99 21 -12 0 50 -5 82 -13 90 -7 7 -16 32 -20 56 -6 38 -9 41 -23 28 -10
-8 -27 -20 -39 -26 -29 -15 -154 -24 -171 -13 -15 10 -82 223 -82 261 0 34
-18 99 -30 106 -5 3 -12 0 -16 -6z m26 -103 c-10 -10 -12 -5 -12 34 0 35 3 36
13 5 5 -18 5 -33 -1 -39z"/>
<path d="M16 3215 c9 -125 72 -307 177 -505 69 -132 142 -252 148 -245 7 6
113 33 157 40 21 3 49 8 62 11 14 3 132 8 262 11 229 5 238 5 263 -16 32 -25
61 -15 71 25 15 59 -43 107 -78 64 -18 -23 -19 -23 -211 -16 -105 4 -211 9
-235 12 -87 9 -228 10 -260 3 l-33 -7 -83 126 c-167 256 -205 341 -239 532 -3
14 -3 -2 -1 -35z"/>
<path d="M6165 3185 c-4 -37 -5 -69 -2 -71 2 -3 8 25 12 61 4 37 5 69 2 71 -2
3 -8 -25 -12 -61z"/>
<path d="M6152 2920 c0 -14 2 -19 5 -12 2 6 2 18 0 25 -3 6 -5 1 -5 -13z"/>
<path d="M52 2900 c0 -14 2 -19 5 -12 2 6 2 18 0 25 -3 6 -5 1 -5 -13z"/>
<path d="M6143 2855 c0 -22 2 -30 4 -17 2 12 2 30 0 40 -3 9 -5 -1 -4 -23z"/>
<path d="M60 2857 c0 -29 44 -167 80 -251 47 -111 71 -156 168 -319 57 -97 80
-126 91 -121 132 52 399 69 761 49 182 -10 177 -9 198 -28 22 -20 53 -22 70
-5 19 19 14 66 -8 88 -25 25 -41 25 -70 0 -24 -21 -21 -21 -225 -5 -33 2 -98
7 -145 11 -47 3 -139 12 -205 19 -124 13 -307 13 -360 1 -31 -8 -32 -6 -137
151 -117 174 -179 290 -198 371 -11 50 -20 66 -20 39z"/>
<path d="M6112 2703 c-37 -179 -37 -179 -84 -198 -47 -18 -170 -33 -167 -19 3
18 -1 34 -10 34 -13 0 -41 -64 -41 -94 0 -31 24 -35 39 -8 7 12 20 18 38 17
43 -2 114 13 151 32 27 15 36 28 51 83 10 36 24 92 31 125 6 33 15 77 20 98 4
20 5 37 1 37 -3 0 -16 -48 -29 -107z"/>
<path d="M4538 2789 c-10 -5 -18 -16 -18 -24 0 -24 -45 -28 -189 -21 -191 11
-223 9 -241 -13 -8 -10 -64 -81 -125 -157 -112 -142 -331 -399 -416 -489 -86
-91 -109 -120 -110 -140 -1 -20 0 -47 7 -260 1 -60 3 -150 3 -198 l1 -88 33
-14 c17 -7 61 -18 96 -25 34 -6 74 -16 88 -21 l26 -10 -30 -27 c-88 -79 -187
-168 -197 -177 -65 -58 -152 -120 -169 -121 -39 -2 -45 -4 -61 -20 -33 -32 -6
-74 47 -74 40 1 64 18 69 50 2 18 29 43 98 92 240 169 339 241 385 282 46 40
48 44 29 54 -11 6 -67 20 -125 31 -144 29 -157 35 -156 74 0 18 -3 118 -7 222
l-7 190 33 36 c18 21 53 59 77 85 79 87 297 350 392 474 52 67 102 123 113
125 235 56 331 74 342 64 22 -18 67 -6 83 23 31 55 -19 109 -71 77z"/>
<path d="M6135 2610 c-3 -5 -1 -10 4 -10 6 0 11 5 11 10 0 6 -2 10 -4 10 -3 0
-8 -4 -11 -10z"/>
<path d="M6129 2578 c-2 -33 -28 -129 -80 -294 -16 -50 -27 -67 -57 -87 -79
-54 -169 -60 -361 -22 -69 13 -115 35 -117 56 -1 5 -2 14 -3 19 -2 21 -37 9
-54 -19 -23 -40 -23 -91 1 -91 10 0 23 5 29 11 9 9 33 6 95 -9 126 -31 144
-34 223 -34 84 0 134 14 186 50 31 22 41 40 68 122 17 53 31 104 31 113 0 9 5
17 10 17 6 0 9 3 8 8 -1 4 4 32 11 62 18 79 23 110 17 110 -3 0 -6 -6 -7 -12z"/>
<path d="M57 2519 c4 -13 8 -18 11 -10 2 7 -1 18 -6 23 -8 8 -9 4 -5 -13z"/>
<path d="M70 2486 c0 -18 42 -131 80 -213 41 -88 130 -243 192 -335 l38 -57
37 16 c42 17 60 21 153 32 67 9 343 7 485 -3 125 -9 216 -16 265 -21 25 -2 74
-7 110 -10 117 -11 144 -16 168 -35 55 -44 112 30 62 80 -24 24 -68 26 -77 4
-5 -13 -20 -14 -103 -9 -53 3 -106 7 -116 9 -10 2 -57 7 -104 11 -47 4 -92 8
-100 10 -8 2 -44 6 -80 10 -75 8 -80 9 -221 29 -102 14 -257 29 -309 29 -40 0
-126 -12 -151 -21 -21 -8 -28 -2 -73 62 -136 196 -182 268 -217 341 -21 44
-39 76 -39 71z"/>
<path d="M164 2118 c44 -118 150 -309 244 -440 32 -45 35 -47 56 -33 34 22
148 34 286 30 120 -3 276 -14 312 -20 9 -2 52 -7 95 -10 43 -4 85 -8 93 -10 9
-2 43 -6 75 -10 33 -4 71 -8 85 -11 14 -2 47 -6 75 -9 27 -4 57 -13 66 -21 41
-37 96 -15 84 35 -11 47 -68 69 -95 37 -6 -8 -24 -13 -38 -12 -15 2 -56 7 -92
11 -36 3 -76 8 -90 10 -14 3 -45 7 -70 10 -99 12 -307 43 -405 61 -11 2 -40 7
-65 10 -25 3 -47 8 -51 9 -10 7 -155 19 -200 17 -26 -1 -58 -6 -72 -11 -24 -9
-29 -5 -78 62 -144 197 -179 247 -203 300 -15 31 -29 57 -32 57 -2 0 7 -28 20
-62z"/>
<path d="M5826 1799 c-24 -13 -67 -23 -112 -26 -71 -6 -74 -5 -74 16 0 48 -54
1 -66 -57 -8 -42 0 -50 27 -26 12 10 38 19 62 21 73 4 118 13 158 32 21 11 39
17 39 15 0 -2 -14 -38 -30 -80 -17 -42 -29 -78 -27 -81 5 -4 77 181 77 197 0
14 -9 12 -54 -11z"/>
<path d="M390 1596 c0 -13 127 -206 167 -255 1 -2 12 4 23 14 17 16 31 17 102
11 96 -7 173 -17 248 -31 14 -2 43 -7 65 -10 22 -3 126 -19 230 -36 l191 -31
55 -52 c140 -131 267 -246 299 -272 19 -16 41 -36 50 -44 31 -31 229 -190 350
-281 475 -361 916 -584 1155 -586 33 0 47 1 30 3 -269 37 -596 195 -1015 492
-237 168 -387 306 -760 699 -91 97 -153 154 -169 158 -27 5 -74 12 -126 19
-16 3 -73 11 -125 20 -52 8 -117 18 -145 22 -27 3 -59 8 -70 10 -11 3 -42 7
-70 10 -27 3 -56 7 -63 9 -7 3 -58 8 -112 11 -85 5 -104 4 -126 -11 -25 -16
-27 -16 -39 2 -16 23 -145 137 -145 129z"/>
<path d="M5445 1484 c-46 -47 -52 -121 -6 -80 15 14 40 20 88 22 38 2 87 10
110 18 l43 15 -16 -37 c-8 -20 -27 -57 -41 -82 -15 -25 -33 -56 -41 -70 l-14
-25 21 25 c22 26 122 222 116 228 -2 2 -25 -4 -52 -13 -26 -9 -74 -18 -105
-19 -50 -2 -58 0 -58 16 0 22 -23 23 -45 2z"/>
<path d="M5057 1286 c-30 -25 -50 -63 -42 -76 8 -13 38 -13 52 1 10 10 169
-15 186 -30 11 -11 -60 -217 -104 -299 -41 -77 -87 -139 -151 -204 -21 -21
-38 -41 -38 -46 1 -14 141 141 183 202 22 33 54 92 71 131 28 66 88 255 81
255 -2 0 -37 7 -77 16 -40 9 -80 17 -88 18 -8 2 -16 9 -16 17 -1 8 -2 19 -3
25 -2 17 -28 12 -54 -10z"/>
<path d="M665 1274 c-5 -1 -23 -5 -38 -8 l-28 -7 28 -32 c18 -21 35 -32 48
-29 11 2 151 -25 310 -58 160 -34 304 -64 320 -67 40 -7 41 -7 135 -93 310
-282 599 -508 865 -676 256 -163 510 -275 655 -289 l55 -5 -61 14 c-197 46
-508 203 -789 399 -225 157 -338 260 -650 590 l-150 159 -95 18 c-133 26 -143
28 -250 46 -101 17 -111 18 -205 29 -82 9 -138 12 -150 9z"/>
<path d="M770 1054 c0 -11 170 -83 295 -124 72 -24 143 -54 158 -67 56 -46
107 -12 52 34 -22 19 -35 23 -59 19 -34 -6 -244 57 -377 114 -38 16 -69 27
-69 24z m490 -169 c7 -9 10 -18 7 -22 -8 -7 -37 15 -37 28 0 14 16 11 30 -6z"/>
<path d="M920 900 c19 -17 94 -60 165 -95 108 -54 232 -139 285 -195 3 -3 52
-41 110 -85 58 -44 110 -85 115 -92 6 -7 26 -15 45 -19 l35 -6 -42 25 c-69 42
-318 235 -392 306 -8 7 -34 22 -58 32 -94 40 -195 92 -245 125 -52 34 -52 34
-18 4z"/>
<path d="M3270 793 c-36 -7 -60 -32 -60 -62 0 -22 -12 -33 -83 -73 -83 -47
-270 -142 -296 -150 -12 -4 74 -64 176 -123 22 -13 31 -25 28 -36 -10 -30 29
-45 101 -40 12 0 32 9 44 19 21 17 21 19 5 35 -10 11 -33 17 -62 17 -42 0
-102 29 -222 108 -9 7 24 28 116 74 71 36 149 78 173 93 29 19 60 29 90 30 58
2 88 19 96 51 11 43 -39 70 -106 57z m55 -36 c17 -13 17 -15 -6 -30 -28 -20
-43 -21 -57 -4 -12 14 -4 31 18 40 23 8 25 8 45 -6z m-185 -412 c-2 -14 -35
-25 -50 -15 -7 4 -9 13 -5 19 8 14 56 10 55 -4z"/>
<path d="M1060 775 c0 -2 26 -21 58 -41 31 -20 82 -57 112 -83 108 -92 236
-182 257 -181 4 1 -5 8 -22 17 -27 14 -182 128 -195 143 -29 33 -210 158 -210
145z"/>
<path d="M1830 307 c0 -2 38 -23 85 -47 47 -24 85 -47 85 -51 0 -5 7 -6 15 -3
8 4 15 1 15 -5 0 -6 3 -10 8 -9 4 1 25 -6 46 -15 72 -32 47 -11 -34 28 -44 21
-100 50 -123 65 -37 24 -97 47 -97 37z"/>
<path d="M1985 300 c3 -5 12 -10 19 -10 13 0 60 -24 141 -70 62 -36 215 -110
226 -110 6 0 8 -4 4 -9 -3 -5 0 -13 6 -17 8 -4 9 -3 5 4 -9 16 0 15 53 -4 24
-8 45 -13 48 -11 2 2 -25 14 -59 27 -117 42 -355 170 -342 183 4 4 -5 11 -20
17 -35 13 -89 13 -81 0z"/>
<path d="M2285 115 c34 -16 72 -21 45 -6 -8 5 -28 11 -45 14 l-30 6 30 -14z"/>
</g>
</svg>
